<?xml version="1.0" standalone="no"?>
<!DOCTYPE svg PUBLIC "-//W3C//DTD SVG 20010904//EN"
 "http://www.w3.org/TR/2001/REC-SVG-20010904/DTD/svg10.dtd">
<svg version="1.0" xmlns="http://www.w3.org/2000/svg"
 width="540.000000pt" height="540.000000pt" viewBox="0 0 540.000000 540.000000"
 preserveAspectRatio="xMidYMid meet">
<metadata>
Created by potrace 1.14, written by Peter Selinger 2001-2017
</metadata>
<g transform="translate(0.000000,540.000000) scale(0.100000,-0.100000)"
fill="#000000" stroke="none">
<path d="M0 4925 l0 -475 24 0 c14 0 31 9 40 21 9 13 21 19 30 16 20 -8 21
-27 2 -27 -21 0 -30 -19 -16 -35 20 -24 5 -42 -39 -49 l-41 -6 0 -49 0 -49 47
14 c26 8 52 13 58 10 5 -2 18 1 28 6 11 5 42 12 70 14 29 3 56 9 61 15 6 5 25
9 42 9 18 0 36 5 39 10 4 6 10 8 14 6 4 -3 25 1 47 9 63 23 74 20 74 -20 0
-19 -4 -35 -9 -35 -5 0 -16 -3 -25 -6 -11 -4 -16 0 -16 12 -1 16 -4 14 -21 -8
-17 -23 -28 -28 -65 -28 -35 0 -44 4 -45 18 0 13 -2 14 -6 2 -8 -23 -45 -50
-69 -50 -11 0 -30 -9 -42 -20 -12 -12 -23 -16 -27 -10 -3 6 -17 10 -30 10 -14
0 -25 7 -28 18 -4 13 -5 14 -6 1 0 -9 -13 -21 -28 -28 -16 -8 -35 -17 -43 -21
-10 -4 -16 -25 -18 -58 l-3 -50 34 8 c19 4 39 10 45 14 11 6 91 25 127 30 11
1 45 9 75 16 30 8 59 13 64 11 6 -1 19 2 30 7 25 11 92 31 121 34 15 2 21 -4
23 -25 4 -34 -23 -48 -43 -21 -14 18 -15 18 -21 -4 -4 -12 -16 -24 -28 -27
-63 -12 -77 -12 -87 4 -8 13 -9 12 -5 -7 3 -18 1 -22 -10 -18 -8 3 -17 -1 -20
-9 -4 -8 -19 -15 -34 -15 -19 0 -36 -9 -48 -25 -16 -20 -21 -22 -26 -10 -6 17
-56 20 -84 6 -53 -27 -72 -32 -91 -26 -19 6 -21 3 -21 -33 0 -26 5 -42 15 -46
20 -7 19 -26 -1 -26 -22 0 -14 -44 9 -48 12 -3 17 3 17 21 0 30 46 52 155 71
11 2 52 11 90 21 39 9 81 19 95 21 14 3 34 10 46 15 11 6 24 9 30 7 5 -2 29 6
52 16 48 22 57 17 66 -35 6 -35 6 -36 -28 -37 -25 -1 -36 3 -39 16 -4 13 -5
13 -6 -4 -1 -26 -31 -41 -96 -48 -27 -4 -54 -11 -59 -16 -6 -6 -20 -10 -32
-10 -12 0 -33 -12 -47 -26 -21 -21 -28 -23 -32 -12 -7 18 -46 12 -140 -21 -33
-11 -68 -21 -77 -21 -17 0 -18 -18 -18 -240 0 -174 3 -246 13 -261 10 -17 10
-23 -1 -26 -9 -4 -12 -167 -12 -770 l0 -766 26 -24 c29 -26 39 -25 116 13 26
13 56 24 66 24 10 0 27 9 37 20 10 11 31 20 46 20 22 0 30 6 35 24 6 27 45 51
68 43 23 -9 20 -63 -5 -88 -14 -14 -28 -19 -45 -15 -16 4 -30 0 -44 -14 -11
-11 -28 -20 -38 -20 -10 0 -26 -6 -37 -13 -11 -8 -42 -22 -68 -32 -80 -30 -88
-59 -46 -152 10 -24 19 -52 19 -63 0 -34 27 -34 98 -2 37 16 84 30 103 30 l35
0 -25 -27 c-14 -15 -57 -42 -94 -60 -49 -23 -75 -43 -89 -66 -11 -19 -28 -37
-39 -40 -16 -5 -19 -14 -17 -43 3 -31 -1 -39 -20 -47 -21 -9 -23 -15 -20 -56
3 -26 15 -60 26 -77 12 -16 22 -37 22 -45 0 -25 20 -30 41 -11 17 15 18 19 4
34 -24 27 -18 46 21 65 45 21 66 14 62 -22 -4 -37 26 -42 78 -12 80 45 189 99
201 99 37 0 1 -33 -93 -86 -59 -32 -118 -70 -133 -84 l-26 -25 23 -3 c13 -2
28 1 35 6 13 10 103 61 175 98 43 23 72 23 72 0 0 -14 -143 -101 -249 -152
-19 -9 -49 -27 -66 -40 -18 -13 -41 -24 -52 -24 -38 0 -44 -56 -13 -117 10
-21 26 -55 34 -75 16 -41 27 -46 46 -23 16 19 50 20 50 1 0 -7 -7 -19 -15 -26
-21 -17 -20 -60 1 -60 9 0 31 15 48 33 29 30 159 97 190 97 8 0 16 7 20 15 6
16 36 10 36 -8 0 -5 -23 -32 -51 -59 -28 -27 -49 -54 -46 -62 3 -7 -4 -18 -14
-24 -12 -8 -19 -24 -19 -41 0 -23 -6 -31 -30 -40 -32 -10 -39 -31 -17 -49 17
-14 97 21 97 42 0 9 12 19 28 22 15 4 34 13 42 20 22 18 85 44 109 44 24 0 47
-40 49 -88 2 -27 -1 -33 -15 -30 -12 3 -17 12 -16 26 4 32 -22 38 -53 13 -17
-13 -41 -21 -66 -21 -31 0 -40 -4 -48 -24 -5 -13 -23 -38 -42 -55 -46 -43 -29
-56 70 -56 42 0 83 -4 91 -9 27 -17 90 -10 108 12 10 11 40 25 67 32 32 9 50
20 54 32 2 10 7 18 11 18 12 0 31 40 25 55 -4 9 -18 15 -35 15 -16 0 -29 5
-29 11 0 7 16 9 50 4 47 -7 55 -4 123 36 39 23 112 69 161 101 49 32 94 57 99
55 6 -2 15 -10 21 -19 14 -22 3 -34 -112 -114 -53 -38 -113 -86 -134 -106 -41
-42 -61 -52 -131 -62 -39 -6 -50 -12 -62 -37 -9 -16 -33 -38 -54 -49 -27 -13
-46 -34 -62 -64 l-22 -45 37 -41 c32 -36 36 -45 30 -76 -12 -65 33 -82 121
-44 49 21 105 27 105 11 0 -22 76 14 168 81 33 24 99 67 147 97 47 30 95 67
105 81 11 15 48 41 83 58 36 17 89 49 118 71 64 49 99 55 44 9 -21 -18 -63
-56 -94 -84 -31 -28 -72 -60 -91 -72 -19 -11 -44 -29 -55 -39 -22 -20 -138
-114 -258 -208 -42 -33 -76 -63 -76 -67 -1 -5 960 -8 2134 -8 l2135 0 0 2700
0 2700 -2700 0 -2700 0 0 -475z m2244 -181 c9 -3 16 -15 16 -25 0 -15 -5 -18
-24 -13 -13 3 -34 0 -46 -6 -15 -8 -25 -9 -32 -2 -7 7 -15 6 -24 -3 -20 -20
-103 -30 -126 -16 -14 9 -18 8 -18 -4 0 -8 6 -16 13 -16 6 -1 -1 -4 -18 -8
-32 -7 -51 8 -42 33 5 12 67 28 117 31 57 4 131 18 135 26 7 10 26 12 49 3z
m-326 -91 c3 -18 -2 -23 -20 -24 -30 -1 -56 -6 -76 -15 -28 -12 -91 -14 -97
-4 -10 17 -25 11 -25 -10 0 -23 -28 -27 -36 -5 -5 13 -11 11 -32 -10 -13 -14
-32 -26 -41 -26 -16 -2 -29 -4 -88 -15 -30 -6 -33 -4 -33 19 0 22 6 26 40 32
21 4 43 4 49 1 5 -3 11 1 15 9 3 8 14 15 25 15 11 0 21 6 24 13 4 10 7 10 18
0 18 -18 39 -16 54 3 11 16 15 16 43 1 33 -16 42 -11 20 11 -9 9 -4 12 23 12
18 0 39 4 46 8 6 4 28 7 50 7 32 0 39 -4 41 -22z m252 -77 c7 -14 10 -32 6
-41 -5 -15 -8 -15 -28 -1 -19 13 -25 14 -43 2 -11 -7 -38 -16 -60 -19 -63 -9
-148 -28 -167 -38 -10 -6 -19 -5 -23 1 -3 5 -19 1 -38 -10 -35 -21 -67 -26
-67 -10 0 6 -5 10 -11 10 -6 0 -9 -7 -5 -15 4 -11 -2 -15 -20 -15 -17 0 -27 8
-34 26 -13 32 -12 54 0 32 10 -16 42 -15 65 3 6 4 27 10 46 12 19 2 40 7 48
11 7 5 18 1 26 -10 14 -18 14 -17 15 7 0 34 7 40 35 29 17 -6 34 -3 61 11 49
25 54 24 54 -7 0 -19 4 -25 18 -22 10 2 16 11 14 21 -2 12 4 17 20 17 13 0 32
7 42 15 26 20 30 19 46 -9z m504 -58 c-3 -5 -11 -5 -17 -1 -7 4 -23 6 -37 5
-14 -1 -31 2 -39 7 -17 11 -6 31 17 31 9 1 28 7 42 15 24 13 25 12 32 -18 3
-17 4 -35 2 -39z m-1341 34 c13 -20 -83 -86 -100 -68 -3 3 1 6 10 6 19 0 23
15 7 25 -6 4 -20 -5 -31 -19 -11 -14 -27 -26 -35 -26 -16 0 -19 16 -4 25 6 4
8 11 4 16 -4 6 -11 6 -20 -2 -11 -9 -14 -6 -14 17 0 22 3 25 12 16 17 -17 89
-14 112 3 21 16 52 20 59 7z m1217 -32 c0 -17 -39 -36 -67 -31 -7 1 -28 -5
-48 -14 -27 -11 -42 -12 -56 -4 -15 7 -21 6 -25 -6 -3 -8 -16 -15 -29 -15 -12
0 -29 -9 -36 -20 -14 -19 -14 -19 -53 0 -50 25 -54 25 -58 -2 -2 -13 -9 -22
-15 -21 -7 2 -33 -6 -58 -17 -26 -11 -67 -20 -91 -20 -24 0 -44 -4 -44 -10 0
-5 -13 -10 -28 -10 -15 0 -33 -5 -38 -10 -6 -6 -27 -12 -48 -14 -21 -2 -42 -8
-49 -15 -6 -6 -21 -11 -34 -11 -19 0 -23 5 -23 31 0 30 2 31 30 26 16 -4 32
-2 36 4 3 6 12 8 19 5 7 -2 22 4 33 15 23 21 68 26 74 7 2 -6 12 -9 21 -5 9 3
14 12 11 20 -4 10 7 14 43 16 26 1 56 7 67 14 12 7 35 14 51 15 17 1 42 7 57
13 16 6 37 9 47 6 13 -3 18 0 15 8 -6 14 22 28 37 19 6 -3 16 -1 24 6 9 7 15
8 20 0 8 -13 45 -13 45 0 0 6 8 10 18 10 10 0 22 4 28 9 10 11 105 30 117 24
4 -2 7 -12 7 -23z m-1110 10 c0 -5 -8 -10 -17 -10 -15 0 -16 2 -3 10 19 12 20
12 20 0z m-376 -36 c25 -10 19 -32 -15 -49 -43 -23 -74 -16 -74 15 0 21 6 26
35 31 19 4 36 7 37 8 1 0 8 -2 17 -5z m-131 -26 c11 2 17 -3 17 -15 0 -11 4
-23 10 -29 6 -6 -6 -10 -37 -12 -26 -1 -51 -6 -56 -11 -5 -5 -16 -7 -23 -4 -8
3 -21 0 -29 -7 -12 -10 -18 -10 -31 1 -14 11 -18 11 -28 -3 -7 -10 -31 -17
-61 -19 -47 -4 -49 -3 -52 23 -2 29 15 48 26 30 5 -8 23 -7 61 4 61 17 82 21
123 23 21 1 31 7 34 22 5 18 8 20 17 8 6 -8 19 -13 29 -11z m721 -20 c15 -24
1 -33 -47 -31 -23 0 -45 -4 -49 -10 -4 -7 -25 -12 -47 -12 -27 0 -41 -4 -41
-12 0 -7 -9 -13 -20 -13 -11 0 -20 2 -20 4 0 2 -3 11 -6 19 -6 17 45 47 80 47
12 1 32 7 46 15 32 19 90 15 104 -7z m-1508 -55 c-10 -10 -19 5 -10 18 6 11 8
11 12 0 2 -7 1 -15 -2 -18z m454 -45 c0 -23 -20 -24 -21 0 0 13 -2 12 -9 -5
-6 -13 -18 -23 -30 -23 -15 0 -20 7 -20 28 0 22 6 31 28 38 30 12 52 -4 52
-38z m3310 31 c0 -5 -4 -9 -10 -9 -5 0 -10 7 -10 16 0 8 5 12 10 9 6 -3 10
-10 10 -16z m-2620 1 c0 -15 -50 -60 -66 -60 -8 0 -14 8 -14 18 0 10 -6 24
-12 31 -11 11 -10 13 2 9 8 -3 24 -2 35 3 29 11 55 11 55 -1z m-128 -20 c33 0
38 -24 9 -40 -28 -14 -41 -12 -35 5 4 11 2 13 -9 9 -18 -7 -31 11 -23 33 5 12
9 14 18 5 7 -7 25 -12 40 -12z m2622 -6 c6 -16 18 -16 73 1 19 6 23 1 37 -49
17 -59 13 -106 -10 -106 -8 0 -14 6 -14 14 0 8 -4 17 -8 20 -13 8 -154 -32
-172 -49 -9 -8 -25 -15 -36 -15 -10 0 -28 -7 -38 -15 -11 -8 -29 -12 -39 -9
-11 3 -23 1 -27 -6 -12 -20 -70 -21 -78 -1 -5 13 -7 11 -12 -9 -4 -15 -13 -24
-23 -24 -9 1 -17 -2 -17 -7 0 -4 -15 -11 -34 -15 -19 -3 -37 -12 -40 -20 -8
-21 -38 -5 -31 17 8 23 -3 24 -41 4 -28 -14 -27 -16 16 -28 11 -3 8 -7 -9 -17
-22 -11 -27 -10 -48 15 -17 19 -23 37 -21 59 3 26 8 32 33 34 16 2 32 7 35 10
3 4 14 12 25 18 11 6 21 21 23 33 4 24 22 29 22 6 0 -17 55 -21 65 -5 3 6 16
10 28 10 12 0 28 9 35 20 6 11 18 17 25 14 7 -2 19 7 27 21 7 14 22 25 32 25
22 0 23 -8 2 -31 -13 -15 -14 -23 -4 -53 6 -20 16 -37 21 -37 31 -6 34 -2 34
45 0 47 2 50 30 57 43 10 95 38 95 53 0 13 20 36 31 36 4 0 10 -7 13 -16z
m-2754 -53 c0 -10 -15 -21 -40 -29 -56 -17 -62 -16 -58 16 2 22 9 28 38 32 44
7 60 2 60 -19z m590 4 c0 -8 -6 -15 -12 -15 -7 0 -24 -12 -37 -25 -25 -27 -77
-35 -68 -11 8 21 -3 27 -20 11 -23 -23 -33 -18 -33 16 0 26 2 29 14 20 15 -13
77 -6 106 10 24 13 50 10 50 -6z m-754 -10 c5 -12 10 -13 20 -4 11 9 14 7 14
-14 0 -14 6 -28 13 -30 6 -3 -3 -6 -20 -6 -23 -1 -33 4 -33 14 0 10 -8 6 -25
-10 -27 -28 -68 -35 -59 -10 4 8 1 15 -5 15 -6 0 -11 -6 -11 -14 0 -7 -12 -21
-26 -31 -24 -16 -27 -16 -45 1 -21 19 -23 65 -3 71 7 2 19 -3 28 -12 9 -9 16
-12 16 -6 0 6 8 11 19 11 10 0 24 7 31 15 7 8 16 12 21 9 5 -3 17 0 26 5 25
14 33 13 39 -4z m854 -5 c0 -5 -5 -10 -11 -10 -5 0 -7 5 -4 10 3 6 8 10 11 10
2 0 4 -4 4 -10z m-303 -52 c-3 -8 -6 -5 -6 6 -1 11 2 17 5 13 3 -3 4 -12 1
-19z m-37 -2 c0 -23 -62 -63 -97 -64 -31 -1 -66 -10 -136 -35 -48 -17 -86 -16
-97 2 -8 14 -9 13 -10 -6 0 -19 -6 -23 -30 -23 -18 0 -33 -6 -36 -15 -7 -18
-55 -20 -72 -3 -9 9 -12 9 -12 -1 0 -20 -40 -71 -56 -71 -8 0 -14 6 -14 14 0
10 -14 13 -52 12 l-53 -1 0 40 0 40 42 -3 c23 -2 57 3 75 11 18 9 50 18 72 22
21 3 47 12 57 18 14 8 21 9 30 0 8 -8 18 -7 37 2 15 7 52 16 82 20 30 4 67 14
82 21 15 8 40 14 55 14 15 0 35 5 43 10 24 16 90 12 90 -4z m-736 -48 c-9 -14
-22 -9 -27 10 -3 12 -5 11 -6 -6 -1 -18 -6 -23 -23 -20 -28 4 -33 53 -6 53 9
0 20 4 24 8 10 9 45 -34 38 -45z m2543 -34 c3 -9 0 -20 -8 -25 -14 -8 -31 18
-22 34 7 12 23 8 30 -9z m-1366 -87 c-6 -6 -11 -20 -11 -30 0 -16 -2 -17 -15
-7 -9 7 -19 9 -23 5 -4 -4 -1 -10 6 -12 18 -7 14 -23 -6 -23 -10 0 -22 -4 -27
-9 -6 -5 -28 -11 -51 -14 -32 -4 -43 -1 -52 13 -13 21 5 31 88 50 32 8 62 22
75 36 11 13 22 18 24 13 2 -6 -2 -16 -8 -22z m2059 17 c0 -17 -22 -14 -28 4
-2 7 3 12 12 12 9 0 16 -7 16 -16z m-3194 -19 c19 -29 12 -55 -14 -55 -10 0
-23 -5 -29 -11 -22 -22 -43 -2 -43 40 0 36 3 40 28 44 15 2 30 5 34 6 4 0 15
-10 24 -24z m3140 -9 c16 4 22 -3 32 -38 7 -24 10 -51 7 -59 -7 -18 -67 -40
-115 -43 -19 -1 -35 -7 -37 -13 -3 -8 -12 -9 -28 -3 -19 7 -22 6 -18 -9 3 -13
-6 -21 -36 -31 -23 -7 -44 -10 -47 -7 -4 3 -13 0 -21 -8 -8 -8 -23 -15 -32
-15 -10 0 -24 -7 -31 -15 -7 -8 -23 -15 -35 -15 -18 0 -27 10 -41 45 -16 44
-16 46 2 60 10 7 36 17 57 20 24 4 43 16 53 30 12 18 20 22 37 16 13 -5 32 -2
51 7 17 9 39 19 48 24 10 4 29 8 43 8 16 0 32 11 46 30 15 20 26 27 34 20 6
-5 20 -7 31 -4z m-2206 -36 c0 -5 -2 -10 -4 -10 -3 0 -8 5 -11 10 -3 6 -1 10
4 10 6 0 11 -4 11 -10z m-50 -45 c0 -19 -77 -68 -96 -61 -8 3 -26 -2 -40 -11
-24 -15 -25 -15 -31 5 -3 12 -9 22 -14 22 -12 0 -12 37 0 45 5 3 12 1 15 -4 7
-11 100 -2 104 10 6 16 62 10 62 -6z m1300 -4 c0 -11 3 -26 6 -35 3 -9 0 -17
-7 -20 -50 -13 -247 -79 -261 -87 -10 -5 -27 -9 -37 -9 -11 0 -23 -4 -26 -10
-3 -5 -17 -10 -30 -10 -13 0 -27 -4 -30 -10 -3 -5 -14 -10 -24 -10 -10 0 -47
-9 -82 -20 -35 -11 -82 -25 -104 -31 -22 -6 -48 -15 -57 -20 -10 -5 -29 -9
-42 -9 -14 0 -28 -4 -31 -10 -3 -5 -21 -10 -40 -10 -18 0 -36 -6 -39 -12 -5
-10 -7 -10 -12 0 -9 19 -32 14 -39 -8 -4 -13 -15 -20 -30 -20 -13 0 -27 -4
-30 -10 -3 -5 -22 -10 -41 -10 -23 0 -34 -5 -34 -15 0 -11 -8 -13 -30 -8 -26
5 -29 3 -24 -12 7 -16 2 -17 -41 -11 -42 7 -47 6 -41 -9 5 -14 2 -16 -13 -12
-17 4 -18 1 -11 -22 20 -63 20 -90 0 -101 -25 -13 -30 -13 -30 5 0 8 -4 15 -9
15 -4 0 -11 17 -14 37 -5 27 -2 42 10 55 15 17 15 18 -5 18 -15 0 -22 6 -22
20 0 13 7 20 20 20 11 0 20 5 20 10 0 6 16 10 35 10 19 0 35 5 35 10 0 6 14
10 30 10 17 0 30 5 30 10 0 6 16 10 35 10 19 0 35 5 35 10 0 6 14 10 30 10 20
0 30 5 30 15 0 10 10 15 29 15 17 0 33 5 36 10 3 6 17 10 30 10 13 0 27 5 30
10 3 6 16 10 29 10 12 0 26 4 32 8 5 4 36 16 69 27 33 10 64 22 69 27 6 4 20
8 32 8 13 0 26 5 29 10 3 6 15 10 26 10 10 0 27 4 37 9 42 22 410 139 440 140
25 1 32 -3 32 -18z m-1000 -57 c7 -19 10 -36 8 -38 -1 -1 -16 -7 -31 -14 -23
-10 -28 -10 -24 0 2 7 0 21 -5 31 -13 25 0 57 22 57 12 0 22 -12 30 -36z
m-560 1 c0 -16 -6 -25 -16 -25 -11 0 -15 -6 -12 -18 5 -19 -19 -22 -56 -7 -14
6 -24 3 -35 -12 -18 -21 -58 -36 -66 -23 -3 4 2 10 10 14 8 3 15 12 15 21 0 8
9 15 19 15 11 0 23 5 26 10 4 7 13 7 26 0 20 -11 28 -7 67 32 22 22 22 22 22
-7z m2080 -5 c0 -11 -4 -20 -9 -20 -13 0 -32 26 -24 33 13 14 33 6 33 -13z
m-1628 -23 c-7 -8 -7 -18 -2 -27 18 -29 11 -37 -30 -35 -22 1 -43 -2 -46 -6
-7 -12 -44 -11 -44 0 0 5 6 12 13 14 9 4 9 6 0 6 -7 1 -25 -18 -39 -41 l-27
-42 -23 29 c-12 16 -21 33 -18 37 9 13 74 38 103 38 14 1 44 9 66 20 47 23 62
25 47 7z m28 -28 c0 -5 -4 -9 -10 -9 -5 0 -10 7 -10 16 0 8 5 12 10 9 6 -3 10
-10 10 -16z m-677 -6 c-7 -2 -13 -13 -13 -23 0 -19 -17 -36 -26 -27 -8 8 27
57 40 56 7 0 6 -2 -1 -6z m1732 -13 c4 -6 -7 -10 -27 -10 -25 0 -29 3 -18 10
19 13 37 13 45 0z m1238 -38 c10 -52 -12 -97 -44 -89 -12 3 -26 -3 -38 -19
-11 -14 -22 -20 -26 -15 -3 7 -15 7 -30 1 -18 -7 -29 -4 -48 11 -14 10 -32 19
-41 19 -27 0 -18 17 13 23 23 5 28 10 24 25 -4 15 5 24 39 41 25 11 51 21 59
21 8 0 23 7 34 16 31 23 49 13 58 -34z m-3093 16 c0 -19 -2 -20 -10 -8 -13 19
-13 30 0 30 6 0 10 -10 10 -22z m-51 -15 c-11 -13 -11 -17 -1 -20 6 -3 12 -10
12 -16 0 -8 -4 -7 -12 1 -17 17 -38 15 -38 -4 0 -8 -5 -12 -10 -9 -6 4 -17 2
-24 -4 -10 -9 -15 -7 -19 9 -5 20 -27 28 -27 10 0 -5 -4 -10 -10 -10 -16 0
-12 40 5 46 8 3 29 1 46 -5 25 -8 37 -8 58 3 35 19 36 19 20 -1z m571 13 c0
-2 3 -13 7 -23 3 -10 3 -15 -2 -11 -4 4 -16 -4 -27 -17 -11 -14 -30 -25 -43
-25 -26 0 -50 24 -40 40 12 20 105 52 105 36z m1276 -5 c-3 -5 -15 -7 -26 -4
-28 7 -25 13 6 13 14 0 23 -4 20 -9z m-61 -21 c-3 -5 -15 -10 -26 -10 -10 0
-19 -4 -19 -9 0 -16 -100 -45 -113 -32 -24 24 38 54 119 59 29 1 43 -1 39 -8z
m-1341 -9 c10 -16 -3 -36 -34 -55 -36 -21 -37 -16 -7 29 23 36 32 42 41 26z
m-606 -38 c-4 -22 -22 -20 -26 1 -2 10 3 16 13 16 10 0 15 -7 13 -17z m3056
-22 c3 -22 9 -46 12 -55 4 -11 1 -16 -10 -16 -9 0 -16 6 -16 13 0 7 -6 22 -14
33 -11 14 -18 16 -26 8 -15 -15 -3 -54 16 -54 20 0 18 -20 -3 -26 -10 -3 -25
-9 -33 -14 -59 -36 -106 -50 -127 -41 -18 8 -23 8 -23 -4 0 -8 -4 -15 -9 -15
-11 0 -41 62 -41 84 0 16 58 46 90 46 10 0 23 7 31 16 7 8 20 13 29 11 9 -2
31 9 50 24 48 40 66 38 74 -10z m-3098 4 c2 -20 -3 -25 -22 -25 -13 0 -24 -4
-24 -10 0 -5 -4 -10 -10 -10 -16 0 -12 18 12 45 27 32 43 32 44 0z m567 16
c-4 -3 -10 -10 -14 -14 -3 -4 -11 -2 -18 6 -9 12 -7 15 14 15 14 0 22 -3 18
-7z m1232 -11 c4 -6 -6 -10 -22 -10 -22 0 -25 2 -13 10 19 12 27 12 35 0z
m-1292 -12 c6 -19 -3 -38 -19 -38 -8 0 -14 10 -14 25 0 26 25 35 33 13z m-98
-7 c3 -5 1 -12 -5 -16 -5 -3 -10 1 -10 9 0 18 6 21 15 7z m37 -23 c-9 -9 -12
-7 -12 12 0 19 3 21 12 12 9 -9 9 -15 0 -24z m1298 22 c0 -5 -9 -10 -21 -10
-11 0 -17 5 -14 10 3 6 13 10 21 10 8 0 14 -4 14 -10z m-1835 -29 c-9 -16 -25
-3 -18 15 4 10 9 12 15 6 6 -6 7 -15 3 -21z m1952 23 c-3 -3 -12 -4 -19 -1 -8
3 -5 6 6 6 11 1 17 -2 13 -5z m-1520 -30 c-9 -9 -28 6 -21 18 4 6 10 6 17 -1
6 -6 8 -13 4 -17z m1323 11 c0 -8 -9 -19 -20 -25 -16 -9 -22 -8 -27 6 -3 9 0
20 8 25 21 13 39 11 39 -6z m-1920 -13 c0 -31 -29 -62 -59 -62 -15 0 -32 -5
-39 -12 -9 -9 -13 -7 -18 6 -6 16 -7 16 -19 -1 -12 -15 -13 -15 -19 5 -4 12
-12 22 -17 22 -5 0 -9 7 -9 15 0 8 5 15 10 15 6 0 10 -7 10 -15 0 -8 7 -15 15
-15 8 0 15 9 15 20 0 11 5 20 10 20 6 0 10 -9 10 -19 0 -10 7 -22 16 -25 22
-9 22 -8 26 17 2 15 9 21 21 19 10 -2 17 3 17 13 0 8 7 15 15 15 8 0 15 -8 15
-18z m46 -7 c-1 -25 -19 -34 -31 -15 -7 11 12 40 25 40 4 0 7 -11 6 -25z
m3014 -16 c0 -23 -28 -26 -37 -3 -6 16 15 37 29 28 4 -3 8 -14 8 -25z m-2520
-24 c-15 -18 -50 -20 -50 -2 0 20 14 34 35 39 24 4 32 -17 15 -37z m3190 21
c0 -16 -18 -31 -27 -22 -8 8 5 36 17 36 5 0 10 -6 10 -14z m-3266 -28 c5 -9 7
-21 3 -25 -5 -4 -12 -1 -17 7 -7 11 -11 11 -24 1 -14 -12 -16 -11 -16 6 0 37
33 44 54 11z m-661 -21 c-5 -23 -55 -53 -72 -43 -5 3 -14 -1 -21 -9 -22 -27
-72 -13 -55 15 5 8 11 8 19 1 9 -7 17 -2 30 20 14 24 21 28 32 18 11 -9 15 -8
20 5 3 9 16 16 29 16 18 0 21 -5 18 -23z m481 -32 c-36 -39 -44 -42 -44 -20 0
23 32 55 56 55 20 0 19 -3 -12 -35z m1156 5 c0 -11 -4 -20 -10 -20 -5 0 -10 9
-10 20 0 11 5 20 10 20 6 0 10 -9 10 -20z m2250 0 c11 -11 20 -29 20 -41 0
-27 -49 -85 -68 -81 -8 2 -24 -5 -36 -16 -27 -24 -104 -29 -112 -7 -4 8 -17
15 -31 15 -22 0 -23 -3 -17 -35 8 -47 -12 -47 -32 1 -15 36 -36 41 -42 10 -2
-9 7 -25 20 -35 13 -11 21 -21 18 -23 -16 -14 -93 -48 -107 -48 -9 0 -22 -8
-29 -17 -11 -15 -16 -16 -33 -5 -27 16 -31 15 -31 -3 0 -39 -33 0 -45 53 -5
26 -3 33 12 39 10 3 26 13 35 21 11 9 27 12 43 8 18 -5 25 -2 25 8 0 15 27 29
41 21 5 -3 25 10 44 30 42 41 52 43 66 11 10 -20 14 -22 35 -12 13 6 24 21 26
36 2 17 10 26 25 28 12 2 27 10 33 18 7 8 20 14 29 14 10 0 26 7 37 15 26 20
50 19 74 -5z m-3472 0 c-10 -6 -14 -18 -11 -30 3 -11 0 -20 -6 -20 -6 0 -11 6
-11 14 0 27 12 46 29 46 15 -1 15 -1 -1 -10z m-48 -25 c0 -6 -9 -20 -20 -30
-19 -18 -20 -17 -20 3 0 11 -4 24 -10 27 -20 12 -9 21 20 17 17 -2 30 -10 30
-17z m1343 -12 c-7 -2 -19 -2 -25 0 -7 3 -2 5 12 5 14 0 19 -2 13 -5z m-1493
-28 c6 -8 10 -22 7 -32 -4 -14 -5 -13 -6 5 -1 31 -14 28 -27 -6 -8 -20 -20
-31 -40 -35 -16 -4 -39 -9 -51 -13 -19 -5 -23 -2 -24 17 -2 23 -2 23 -6 2 -7
-36 -93 -81 -93 -49 0 21 -16 20 -25 -1 -6 -17 -7 -17 -21 1 -14 20 -14 20
-14 0 0 -27 -19 -44 -47 -44 -19 0 -23 5 -23 30 0 23 5 30 19 30 11 0 23 5 26
10 3 6 19 10 35 10 16 0 32 5 35 10 3 6 15 10 26 10 11 0 28 7 36 16 10 10 25
13 39 10 14 -4 34 0 48 9 13 9 30 13 38 10 8 -3 21 1 28 10 16 19 24 19 40 0z
m2410 5 c0 -5 -4 -10 -10 -10 -5 0 -10 5 -10 10 0 6 5 10 10 10 6 0 10 -4 10
-10z m-45 -20 c4 -6 -6 -10 -22 -9 -25 0 -26 1 -8 9 11 5 21 9 22 9 1 1 5 -3
8 -9z m-1055 -20 c0 -5 -5 -10 -11 -10 -5 0 -7 5 -4 10 3 6 8 10 11 10 2 0 4
-4 4 -10z m527 -6 c-3 -3 -12 -4 -19 -1 -8 3 -5 6 6 6 11 1 17 -2 13 -5z m466
-1 c-7 -2 -19 -2 -25 0 -7 3 -2 5 12 5 14 0 19 -2 13 -5z m-520 -20 c-7 -2
-19 -2 -25 0 -7 3 -2 5 12 5 14 0 19 -2 13 -5z m414 -19 c-3 -3 -12 -4 -19 -1
-8 3 -5 6 6 6 11 1 17 -2 13 -5z m200 0 c-3 -3 -12 -4 -19 -1 -8 3 -5 6 6 6
11 1 17 -2 13 -5z m-2837 -56 l0 -42 -20 39 c-11 22 -20 41 -20 42 0 2 9 3 20
3 17 0 20 -7 20 -42z m2787 36 c-3 -3 -12 -4 -19 -1 -8 3 -5 6 6 6 11 1 17 -2
13 -5z m-2737 -34 c0 -10 -4 -21 -9 -24 -10 -7 -23 33 -15 46 8 13 24 -1 24
-22z m3514 14 c10 -26 7 -34 -14 -34 -15 0 -20 7 -20 25 0 28 24 34 34 9z
m-1504 2 c0 -3 -4 -8 -10 -11 -5 -3 -10 -1 -10 4 0 6 5 11 10 11 6 0 10 -2 10
-4z m-80 -30 c0 -2 -7 -6 -15 -10 -8 -3 -15 -1 -15 4 0 6 7 10 15 10 8 0 15
-2 15 -4z m482 -72 c4 -6 2 -19 -5 -28 -18 -25 -45 -10 -57 32 -13 50 -13 51
13 61 19 8 23 5 32 -23 6 -17 13 -36 17 -42z m-532 51 c0 -8 -7 -15 -15 -15
-16 0 -20 12 -8 23 11 12 23 8 23 -8z m607 -1 c-3 -3 -12 -4 -19 -1 -8 3 -5 6
6 6 11 1 17 -2 13 -5z m-650 -20 c-3 -3 -12 -4 -19 -1 -8 3 -5 6 6 6 11 1 17
-2 13 -5z m-87 -29 c0 -8 -7 -15 -15 -15 -9 0 -12 6 -9 15 4 8 10 15 15 15 5
0 9 -7 9 -15z m-65 -16 c8 -12 -23 -49 -41 -49 -15 0 -28 35 -19 50 8 13 52
13 60 -1z m1830 -189 c3 -5 1 -10 -4 -10 -6 0 -11 5 -11 10 0 6 2 10 4 10 3 0
8 -4 11 -10z m-1275 -84 c0 -2 -7 -6 -15 -10 -8 -3 -15 -1 -15 4 0 6 7 10 15
10 8 0 15 -2 15 -4z m720 -26 c0 -5 -9 -10 -20 -10 -11 0 -20 5 -20 10 0 6 9
10 20 10 11 0 20 -4 20 -10z m-814 -25 c-25 -19 -36 -19 -36 0 0 10 10 15 28
15 26 -1 26 -1 8 -15z m764 5 c0 -5 -7 -10 -16 -10 -8 0 -12 5 -9 10 3 6 10
10 16 10 5 0 9 -4 9 -10z m-810 -20 c0 -5 -17 -16 -37 -25 -21 -9 -51 -23 -66
-31 -16 -8 -34 -14 -40 -14 -6 0 -19 -7 -29 -17 -20 -18 -34 -12 -25 12 4 8
17 15 31 15 13 0 26 5 28 11 4 11 103 58 126 59 6 0 12 -4 12 -10z m770 0 c0
-5 -7 -10 -16 -10 -8 0 -12 5 -9 10 3 6 10 10 16 10 5 0 9 -4 9 -10z m-128
-72 c-9 -9 -15 -9 -24 0 -9 9 -7 12 12 12 19 0 21 -3 12 -12z m-862 -28 c0
-11 -7 -20 -15 -20 -15 0 -21 21 -8 33 12 13 23 7 23 -13z m-53 -16 c9 -24
-10 -49 -37 -49 -31 0 -48 28 -31 49 17 21 60 21 68 0z m1003 6 c0 -5 -7 -10
-16 -10 -8 0 -12 5 -9 10 3 6 10 10 16 10 5 0 9 -4 9 -10z m-270 -47 c7 -27
28 -93 45 -148 51 -157 61 -204 48 -223 -20 -33 -38 -24 -52 25 -7 26 -16 59
-21 73 -4 14 -13 45 -20 70 -7 25 -16 59 -21 75 -5 17 -17 57 -28 90 -18 55
-19 61 -4 73 28 21 38 14 53 -35z m230 27 c0 -13 -38 -32 -53 -26 -7 2 -5 5 4
5 9 1 19 8 23 16 6 17 26 21 26 5z m30 -35 c-14 -8 -33 -18 -42 -21 -10 -3
-18 -10 -18 -15 0 -5 -9 -9 -20 -9 -11 0 -20 -4 -20 -10 0 -5 9 -10 20 -10 25
0 26 -15 3 -24 -10 -3 -25 -9 -33 -13 -13 -5 -13 -4 -1 11 12 14 12 19 2 26
-8 4 -10 13 -6 20 5 8 1 18 -10 27 -17 12 -17 13 -2 13 9 0 17 -4 17 -10 0 -5
11 -10 25 -10 14 0 25 5 25 10 0 12 36 29 65 29 18 1 17 -1 -5 -14z m-455 -55
c-3 -5 -13 -10 -21 -10 -8 0 -12 5 -9 10 3 6 13 10 21 10 8 0 12 -4 9 -10z
m545 -20 c0 -5 -5 -10 -11 -10 -5 0 -7 5 -4 10 3 6 8 10 11 10 2 0 4 -4 4 -10z
m-630 -20 c0 -5 -8 -10 -17 -10 -15 0 -16 2 -3 10 19 12 20 12 20 0z m600 0
c0 -5 -8 -10 -17 -10 -15 0 -16 2 -3 10 19 12 20 12 20 0z m-987 -36 c8 -9
-24 -40 -50 -48 -29 -9 -39 11 -17 35 16 18 54 26 67 13z m907 -9 c0 -2 -7 -5
-15 -9 -9 -3 -15 0 -15 9 0 9 6 12 15 9 8 -4 15 -7 15 -9z m-684 -40 c-9 -9
-24 -15 -34 -13 -13 3 -11 7 13 20 35 19 44 16 21 -7z m644 15 c0 -5 -4 -10
-9 -10 -6 0 -13 5 -16 10 -3 6 1 10 9 10 9 0 16 -4 16 -10z m87 4 c-3 -3 -12
-4 -19 -1 -8 3 -5 6 6 6 11 1 17 -2 13 -5z m-647 -24 c0 -5 -9 -10 -20 -10
-11 0 -20 -4 -20 -10 0 -5 -6 -10 -14 -10 -8 0 -17 -6 -19 -12 -3 -8 -6 -6 -6
4 -1 9 11 23 27 31 33 18 52 20 52 7z m600 0 c0 -5 -4 -10 -10 -10 -5 0 -10 5
-10 10 0 6 5 10 10 10 6 0 10 -4 10 -10z m-40 -20 c0 -5 -4 -10 -10 -10 -5 0
-10 5 -10 10 0 6 5 10 10 10 6 0 10 -4 10 -10z m90 0 c0 -5 -7 -10 -15 -10 -8
0 -15 5 -15 10 0 6 7 10 15 10 8 0 15 -4 15 -10z m-645 -20 c3 -5 -3 -10 -14
-10 -12 0 -21 -4 -21 -10 0 -5 -7 -10 -16 -10 -12 0 -11 5 7 20 27 22 35 24
44 10z m582 -15 c-9 -8 -21 -15 -27 -15 -7 0 -2 9 11 19 28 22 39 20 16 -4z
m-713 -4 c3 -5 -3 -11 -14 -14 -22 -6 -37 8 -18 16 20 8 26 8 32 -2z m-144
-39 c0 -8 5 -32 11 -53 15 -49 46 -62 204 -83 151 -21 309 -47 313 -51 5 -5
-85 -65 -97 -65 -6 0 -11 -4 -11 -10 0 -5 -4 -10 -10 -10 -5 0 -41 -20 -80
-45 -39 -25 -72 -45 -75 -45 -3 0 -44 -25 -90 -55 -47 -30 -88 -55 -92 -55
-13 0 -32 37 -33 63 0 15 -4 35 -9 45 -17 30 -86 248 -101 317 -8 34 -6 42 10
57 23 19 60 13 60 -10z m188 6 c-16 -5 -28 -14 -28 -19 0 -5 -9 -9 -20 -9 -11
0 -20 5 -20 10 0 14 38 29 70 29 l25 -1 -27 -10z m-13 -58 c-3 -5 -13 -10 -21
-10 -8 0 -14 -4 -14 -10 0 -5 -5 -10 -10 -10 -7 0 -7 6 0 20 6 11 20 20 31 20
11 0 17 -4 14 -10z m1118 -85 c1 -6 -27 -29 -63 -52 -36 -24 -77 -53 -91 -67
-15 -13 -41 -32 -58 -42 -17 -10 -31 -22 -31 -26 0 -4 -8 -8 -18 -8 -10 0 -23
-5 -29 -11 -6 -6 -16 -8 -22 -4 -22 13 27 61 111 110 46 27 105 64 133 82 49
33 65 37 68 18z m-443 -96 c0 -6 -9 -13 -20 -16 -11 -3 -20 -9 -20 -14 0 -5
-5 -9 -10 -9 -6 0 -34 -17 -63 -37 -28 -20 -116 -78 -194 -129 -107 -69 -138
-94 -125 -99 16 -6 16 -7 -2 -21 -26 -18 -37 -18 -30 1 8 21 -15 11 -101 -42
-38 -24 -74 -43 -80 -43 -6 0 -23 -15 -39 -32 l-28 -33 -19 24 c-23 28 -25 77
-4 85 8 3 12 12 9 21 -7 18 0 19 25 3 15 -9 24 -7 47 9 33 24 215 133 220 133
3 0 28 15 57 34 43 27 187 113 272 163 26 15 105 16 105 2z m500 -93 c0 -7
-16 -24 -35 -37 -19 -13 -35 -27 -35 -31 0 -5 -7 -8 -15 -8 -8 0 -15 -4 -15
-10 0 -5 -7 -10 -15 -10 -8 0 -15 -4 -15 -10 0 -5 -4 -10 -10 -10 -9 0 -42
-25 -76 -57 -7 -7 -16 -13 -20 -13 -4 0 -30 -18 -58 -39 -57 -44 -102 -65
-124 -56 -13 5 -12 8 2 24 10 11 31 25 47 31 16 7 29 16 29 21 0 5 14 16 31
24 25 13 28 19 18 31 -10 12 -8 17 7 28 20 15 38 11 28 -6 -4 -7 2 -8 17 -3
33 10 36 15 19 25 -8 5 -11 12 -7 17 5 4 12 1 16 -6 7 -11 17 -9 50 10 22 12
41 26 41 31 0 4 6 8 13 8 6 1 30 14 52 30 45 33 55 36 55 16z m-403 -93 c-25
-23 -55 -43 -66 -43 -12 0 -21 -7 -21 -15 0 -8 -24 -27 -52 -41 -29 -15 -78
-43 -108 -64 -30 -20 -81 -45 -112 -55 -32 -10 -58 -21 -58 -25 0 -3 -17 -16
-37 -27 -65 -36 -111 -32 -80 7 16 21 174 130 187 130 5 0 10 4 10 9 0 5 8 11
18 14 30 11 129 71 159 98 18 16 42 26 63 27 18 0 38 6 43 11 6 6 23 11 38 11
15 0 31 5 34 10 4 6 11 7 17 4 7 -4 -7 -24 -35 -51z m-832 -63 c3 -5 1 -10 -4
-10 -6 0 -11 5 -11 10 0 6 2 10 4 10 3 0 8 -4 11 -10z m295 -130 c0 -5 -7 -10
-15 -10 -8 0 -15 5 -15 10 0 6 7 10 15 10 8 0 15 -4 15 -10z m1084 -15 c6 -16
-16 -26 -34 -15 -17 11 -5 41 14 34 8 -3 17 -12 20 -19z m-2374 -208 c0 -17
-206 -124 -217 -113 -4 5 -3 10 2 12 6 2 53 28 105 58 106 60 110 61 110 43z
m1113 -14 c5 -21 0 -33 -15 -46 -21 -17 -21 -17 -36 13 -12 24 -12 33 -2 45
20 24 47 18 53 -12z m-1097 -138 c-11 -8 -22 -12 -25 -9 -6 6 19 24 34 24 6
-1 1 -7 -9 -15z m1164 -65 c9 -17 6 -24 -16 -45 -33 -30 -48 -28 -52 7 -2 18
4 31 20 42 29 21 35 20 48 -4z m-1430 -20 c0 -5 -9 -14 -19 -19 -15 -9 -20 -7
-24 9 -4 16 0 20 19 20 13 0 24 -4 24 -10z m-140 -50 c12 -8 12 -13 -2 -44
-14 -29 -15 -35 -2 -40 23 -9 16 -42 -14 -68 -41 -34 -128 -72 -147 -64 -13 5
-16 14 -12 36 4 17 0 40 -8 57 -13 24 -12 29 3 46 9 11 34 29 56 41 21 11 48
27 60 33 25 15 46 16 66 3z m620 -20 c0 -5 -4 -10 -10 -10 -5 0 -10 5 -10 10
0 6 5 10 10 10 6 0 10 -4 10 -10z m-482 -22 c-3 -25 -34 -36 -50 -20 -17 17
-1 42 27 42 22 0 26 -4 23 -22z m-72 -45 c-3 -3 -13 -2 -23 1 -17 7 -17 8 2
22 18 13 20 13 23 -1 2 -9 1 -19 -2 -22z m451 -5 c-3 -8 -6 -5 -6 6 -1 11 2
17 5 13 3 -3 4 -12 1 -19z m-62 -36 c-24 -22 -75 -45 -75 -34 0 14 24 32 42
32 10 0 18 5 18 10 0 6 8 10 17 10 16 0 15 -2 -2 -18z m-140 -72 c3 -5 -12
-21 -34 -35 -68 -42 -86 -27 -21 19 40 28 46 30 55 16z m415 -70 c0 -5 -7 -10
-15 -10 -8 0 -15 -4 -15 -10 0 -5 -10 -10 -22 -10 l-23 0 25 20 c27 21 50 26
50 10z m-580 -38 c0 -9 -81 -52 -98 -52 -11 0 -11 2 0 13 36 32 98 58 98 39z
m473 -29 c-7 -2 -19 -2 -25 0 -7 3 -2 5 12 5 14 0 19 -2 13 -5z m-53 -38 c0
-8 -6 -15 -14 -15 -20 0 -29 17 -14 23 22 9 28 7 28 -8z m-580 -19 c0 -3 -4
-8 -10 -11 -5 -3 -10 -1 -10 4 0 6 5 11 10 11 6 0 10 -2 10 -4z m-120 -79 c0
-20 -118 -117 -142 -117 -11 0 -33 -13 -50 -30 -28 -29 -59 -37 -91 -24 -37
14 19 73 85 89 15 4 29 13 32 21 6 17 122 74 149 74 9 0 17 -6 17 -13z m503
-24 c-37 -19 -41 -16 -13 11 15 14 28 19 32 13 3 -6 -5 -17 -19 -24z m-143
-93 c0 -6 -45 -39 -100 -75 -54 -36 -102 -70 -105 -75 -9 -14 -45 -12 -45 3 0
22 14 34 75 65 33 18 83 47 110 66 48 32 65 36 65 16z"/>
<path d="M2145 4570 c-3 -5 -1 -10 4 -10 6 0 11 5 11 10 0 6 -2 10 -4 10 -3 0
-8 -4 -11 -10z"/>
<path d="M1605 4440 c-3 -5 -1 -10 4 -10 6 0 11 5 11 10 0 6 -2 10 -4 10 -3 0
-8 -4 -11 -10z"/>
<path d="M3326 4151 c-4 -7 -5 -15 -2 -18 9 -9 19 4 14 18 -4 11 -6 11 -12 0z"/>
<path d="M3551 3894 c0 -11 3 -14 6 -6 3 7 2 16 -1 19 -3 4 -6 -2 -5 -13z"/>
<path d="M3470 3840 c-12 -8 -11 -10 8 -10 12 0 22 5 22 10 0 13 -11 13 -30 0z"/>
<path d="M1470 3940 c0 -5 5 -10 10 -10 6 0 10 5 10 10 0 6 -4 10 -10 10 -5 0
-10 -4 -10 -10z"/>
<path d="M416 3471 c-4 -7 -5 -15 -2 -18 9 -9 19 4 14 18 -4 11 -6 11 -12 0z"/>
<path d="M260 4125 c0 -8 5 -15 10 -15 6 0 10 7 10 15 0 8 -4 15 -10 15 -5 0
-10 -7 -10 -15z"/>
<path d="M0 865 c0 -8 5 -15 10 -15 6 0 10 7 10 15 0 8 -4 15 -10 15 -5 0 -10
-7 -10 -15z"/>
</g>
</svg>
